<svg width="45" height="45" viewBox="0 0 45 45" fill="none" xmlns="http://www.w3.org/2000/svg">
<path fill-rule="evenodd" clip-rule="evenodd" d="M45 0H0V40.5C0 42.7091 1.79086 44.5 4 44.5H41C43.2091 44.5 45 42.7091 45 40.5V0ZM15.4875 22.4C15.8125 22.7333 16.2167 22.9 16.7 22.9H29.6C30.0833 22.9 30.4875 22.7333 30.8125 22.4C31.1375 22.0667 31.3 21.6667 31.3 21.2C31.3 20.7167 31.1375 20.3125 30.8125 19.9875C30.4875 19.6625 30.0833 19.5 29.6 19.5H16.7C16.2167 19.5 15.8125 19.6625 15.4875 19.9875C15.1625 20.3125 15 20.7167 15 21.2C15 21.6667 15.1625 22.0667 15.4875 22.4Z" fill="white"/>
</svg>
