<svg width="45" height="45" viewBox="0 0 45 45" fill="none" xmlns="http://www.w3.org/2000/svg">
<path fill-rule="evenodd" clip-rule="evenodd" d="M4 0C1.79086 0 0 1.79086 0 4V44.5H45V4C45 1.79086 43.2091 0 41 0H4ZM16.55 23.7H21.3V28.45C21.3 28.91 21.4683 29.3083 21.805 29.645C22.1416 29.9817 22.54 30.15 23 30.15C23.46 30.15 23.8583 29.9817 24.195 29.645C24.5316 29.3083 24.7 28.91 24.7 28.45V23.7H29.45C29.9333 23.7 30.3375 23.5333 30.6625 23.2C30.9875 22.8667 31.15 22.4625 31.15 21.9875C31.15 21.5125 30.9875 21.1125 30.6625 20.7875C30.3375 20.4625 29.9333 20.3 29.45 20.3H24.7V15.525C24.7 15.065 24.5316 14.6667 24.195 14.33C23.8583 13.9933 23.46 13.825 23 13.825C22.54 13.825 22.1416 13.9933 21.805 14.33C21.4683 14.6667 21.3 15.065 21.3 15.525V20.3H16.55C16.0667 20.3 15.6625 20.4625 15.3375 20.7875C15.0125 21.1125 14.85 21.5167 14.85 22C14.85 22.46 15.0125 22.8583 15.3375 23.195C15.6625 23.5317 16.0667 23.7 16.55 23.7Z" fill="white"/>
</svg>
